<?xml version="1.0" encoding="UTF-8" standalone="no"?>
<!-- Created with Inkscape (http://www.inkscape.org/) -->

<svg
   xmlns:dc="http://purl.org/dc/elements/1.1/"
   xmlns:cc="http://creativecommons.org/ns#"
   xmlns:rdf="http://www.w3.org/1999/02/22-rdf-syntax-ns#"
   xmlns:svg="http://www.w3.org/2000/svg"
   xmlns="http://www.w3.org/2000/svg"
   xmlns:sodipodi="http://sodipodi.sourceforge.net/DTD/sodipodi-0.dtd"
   xmlns:inkscape="http://www.inkscape.org/namespaces/inkscape"
   width="297mm"
   height="210mm"
   viewBox="0 0 1052.3622 744.09448"
   id="svg2"
   version="1.1"
   inkscape:version="0.91 r13725"
   sodipodi:docname="Boat.svg">
  <defs
     id="defs4" />
  <sodipodi:namedview
     id="base"
     pagecolor="#ffffff"
     bordercolor="#666666"
     borderopacity="1.0"
     inkscape:pageopacity="0.0"
     inkscape:pageshadow="2"
     inkscape:zoom="0.27605973"
     inkscape:cx="1046.004"
     inkscape:cy="946.74605"
     inkscape:document-units="px"
     inkscape:current-layer="layer4"
     showgrid="false"
     objecttolerance="10000"
     inkscape:snap-path-clip="true"
     inkscape:snap-path-mask="true"
     guidetolerance="10000"
     showborder="false" />
  <metadata
     id="metadata7">
    <rdf:RDF>
      <cc:Work
         rdf:about="">
        <dc:format>image/svg+xml</dc:format>
        <dc:type
           rdf:resource="http://purl.org/dc/dcmitype/StillImage" />
        <dc:title></dc:title>
      </cc:Work>
    </rdf:RDF>
  </metadata>
  <g
     inkscape:label="Layer 1"
     inkscape:groupmode="layer"
     id="layer1"
     transform="translate(0,-308.26772)"
     style="display:inline">
    <path
       style="opacity:1;fill:#ff6600;fill-opacity:1;fill-rule:nonzero;stroke:none;stroke-width:0.1;stroke-linecap:round;stroke-linejoin:round;stroke-miterlimit:4;stroke-dasharray:0.1, 0.1;stroke-dashoffset:0;stroke-opacity:1"
       d="m 439.28471,481.16402 251.01983,29.45641 -10.2457,124.22921 -326.58193,7.68428 z"
       id="rect7422"
       inkscape:connector-curvature="0"
       sodipodi:nodetypes="ccccc" />
    <path
       style="opacity:1;fill:#000080;fill-opacity:1;fill-rule:nonzero;stroke:none;stroke-width:0.1;stroke-linecap:round;stroke-linejoin:round;stroke-miterlimit:4;stroke-dasharray:0.1, 0.1;stroke-dashoffset:0;stroke-opacity:1"
       d="m 192.10701,581.05969 633.95313,51.22854 -112.70278,120.38706 -390.61758,0 z"
       id="rect7419"
       inkscape:connector-curvature="0"
       sodipodi:nodetypes="ccccc" />
    <path
       style="opacity:1;fill:#ff6600;fill-opacity:1;fill-rule:nonzero;stroke:none;stroke-width:0.1;stroke-linecap:round;stroke-linejoin:round;stroke-miterlimit:4;stroke-dasharray:0.1, 0.1;stroke-dashoffset:0;stroke-opacity:1"
       d="m 614.64564,403.79251 68.65397,11.67791 -38.14109,108.02071 -54.66891,0 z"
       id="rect7472"
       inkscape:connector-curvature="0"
       sodipodi:nodetypes="ccccc" />
    <path
       style="opacity:1;fill:#502d16;fill-opacity:1;fill-rule:nonzero;stroke:none;stroke-width:0.1;stroke-linecap:round;stroke-linejoin:round;stroke-miterlimit:4;stroke-dasharray:0.1, 0.1;stroke-dashoffset:0;stroke-opacity:1"
       d="M 435.88803,436.17549 729.34769,490.0289 713.84414,513.98578 400.24152,481.26414 Z"
       id="rect7425"
       inkscape:connector-curvature="0"
       sodipodi:nodetypes="ccccc" />
    <ellipse
       style="opacity:1;fill:#00ffff;fill-opacity:1;fill-rule:nonzero;stroke:none;stroke-width:0.1;stroke-linecap:round;stroke-linejoin:round;stroke-miterlimit:4;stroke-dasharray:0.1, 0.1;stroke-dashoffset:0;stroke-opacity:1"
       id="path7428"
       cx="475.14468"
       cy="550.32257"
       rx="47.386395"
       ry="46.105682" />
    <ellipse
       ry="46.105682"
       rx="47.386395"
       cy="564.4104"
       cx="612.18103"
       id="ellipse7430"
       style="opacity:1;fill:#00ffff;fill-opacity:1;fill-rule:nonzero;stroke:none;stroke-width:0.1;stroke-linecap:round;stroke-linejoin:round;stroke-miterlimit:4;stroke-dasharray:0.1, 0.1;stroke-dashoffset:0;stroke-opacity:1" />
    <ellipse
       ry="19.937592"
       rx="20.491413"
       cy="613.80438"
       cx="254.86197"
       id="ellipse7432"
       style="opacity:1;fill:#2b1100;fill-opacity:1;fill-rule:nonzero;stroke:none;stroke-width:0.1;stroke-linecap:round;stroke-linejoin:round;stroke-miterlimit:4;stroke-dasharray:0.1, 0.1;stroke-dashoffset:0;stroke-opacity:1" />
    <ellipse
       style="opacity:1;fill:#00ffff;fill-opacity:1;fill-rule:nonzero;stroke:none;stroke-width:0.1;stroke-linecap:round;stroke-linejoin:round;stroke-miterlimit:4;stroke-dasharray:0.1, 0.1;stroke-dashoffset:0;stroke-opacity:1"
       id="ellipse7434"
       cx="255.23552"
       cy="611.8833"
       rx="10.619247"
       ry="10.332241" />
    <ellipse
       ry="31.152487"
       rx="32.017834"
       cy="550.32257"
       cx="475.14468"
       id="ellipse7436"
       style="opacity:1;fill:#008080;fill-opacity:1;fill-rule:nonzero;stroke:none;stroke-width:0.1;stroke-linecap:round;stroke-linejoin:round;stroke-miterlimit:4;stroke-dasharray:0.1, 0.1;stroke-dashoffset:0;stroke-opacity:1" />
    <ellipse
       style="opacity:1;fill:#008080;fill-opacity:1;fill-rule:nonzero;stroke:none;stroke-width:0.1;stroke-linecap:round;stroke-linejoin:round;stroke-miterlimit:4;stroke-dasharray:0.1, 0.1;stroke-dashoffset:0;stroke-opacity:1"
       id="ellipse7438"
       cx="612.18103"
       cy="564.4104"
       rx="28.175694"
       ry="27.414188" />
    <path
       style="opacity:1;fill:#008080;fill-opacity:1;fill-rule:nonzero;stroke:none;stroke-width:0.1;stroke-linecap:round;stroke-linejoin:round;stroke-miterlimit:4;stroke-dasharray:0.1, 0.1;stroke-dashoffset:0;stroke-opacity:1"
       d="m -48.66711,716.81531 c 20.087476,-30.70446 60.535431,-40.8864 87.888955,-38.4214 27.353525,2.465 29.798309,35.9564 57.151834,38.4214 27.353521,2.465 60.535431,-40.8864 87.888951,-38.4214 27.35353,2.465 29.79831,35.9564 57.15184,38.4214 27.35352,2.465 60.53543,-40.8864 87.88895,-38.4214 27.35353,2.465 29.79831,35.9564 57.15184,38.4214 27.35352,2.465 60.53543,-40.8864 87.88895,-38.4214 27.35353,2.465 29.79831,35.9564 57.15183,38.4214 27.35353,2.465 60.53544,-40.8864 87.88896,-38.4214 27.35352,2.465 29.79831,35.9564 57.15183,38.4214 27.35353,2.465 60.53543,-40.8864 87.88896,-38.4214 27.35352,2.465 29.79831,35.9564 57.15183,38.4214 27.35353,2.465 60.53543,-40.8864 87.88896,-38.4214 27.35352,2.465 29.79831,35.9564 57.15183,38.4214 27.35353,2.465 60.53539,-40.8864 87.88899,-38.4214 27.3535,2.465 42.0211,10.01755 57.1518,38.4214 15.1307,28.40385 0,124.2292 0,124.2292 l -1160.32631,0 c 0,0 -20.087476,-93.52474 0,-124.2292 z"
       id="rect7459"
       inkscape:connector-curvature="0"
       sodipodi:nodetypes="zzzzzzzzzzzzzzzzzccz" />
    <path
       sodipodi:nodetypes="zzzzzzzzzzzzzzzzzccz"
       inkscape:connector-curvature="0"
       id="path7462"
       d="m -41.4223,736.73853 c 20.087476,-30.70446 60.535431,-40.8864 87.888955,-38.4214 27.353525,2.465 29.798309,35.9564 57.151835,38.4214 27.35351,2.465 60.53542,-40.8864 87.88894,-38.4214 27.35353,2.465 29.79831,35.9564 57.15184,38.4214 27.35352,2.465 60.53543,-40.8864 87.88895,-38.4214 27.35353,2.465 29.79831,35.9564 57.15184,38.4214 27.35352,2.465 60.53543,-40.8864 87.88895,-38.4214 27.35353,2.465 29.79831,35.9564 57.15183,38.4214 27.35353,2.465 60.53544,-40.8864 87.88896,-38.4214 27.35352,2.465 29.79831,35.9564 57.15183,38.4214 27.35353,2.465 60.53543,-40.8864 87.88896,-38.4214 27.35352,2.465 29.79831,35.9564 57.15183,38.4214 27.35353,2.465 60.53543,-40.8864 87.88896,-38.4214 27.35352,2.465 29.79831,35.9564 57.15183,38.4214 27.35349,2.465 60.53539,-40.8864 87.88899,-38.4214 27.3535,2.465 42.0211,10.01755 57.1518,38.4214 15.1307,28.40385 0,124.2292 0,124.2292 l -1160.3263,0 c 0,0 -20.087476,-93.52474 0,-124.2292 z"
       style="opacity:1;fill:#e6e6e6;fill-opacity:1;fill-rule:nonzero;stroke:none;stroke-width:0.1;stroke-linecap:round;stroke-linejoin:round;stroke-miterlimit:4;stroke-dasharray:0.1, 0.1;stroke-dashoffset:0;stroke-opacity:1" />
    <path
       style="opacity:1;fill:#008080;fill-opacity:1;fill-rule:nonzero;stroke:none;stroke-width:0.1;stroke-linecap:round;stroke-linejoin:round;stroke-miterlimit:4;stroke-dasharray:0.1, 0.1;stroke-dashoffset:0;stroke-opacity:1"
       d="m -39.611098,756.66175 c 20.087476,-30.70446 60.535431,-40.8864 87.888955,-38.4214 27.353525,2.465 29.798309,35.9564 57.151833,38.4214 27.35352,2.465 60.53543,-40.8864 87.88895,-38.4214 27.35353,2.465 29.79831,35.9564 57.15184,38.4214 27.35352,2.465 60.53543,-40.8864 87.88895,-38.4214 27.35353,2.465 29.79831,35.9564 57.15184,38.4214 27.35352,2.465 60.53543,-40.8864 87.88895,-38.4214 27.35353,2.465 29.79831,35.9564 57.15183,38.4214 27.35353,2.465 60.53544,-40.8864 87.88896,-38.4214 27.35352,2.465 29.79831,35.9564 57.15183,38.4214 27.35353,2.465 60.53543,-40.8864 87.88896,-38.4214 27.35352,2.465 29.79831,35.9564 57.15183,38.4214 27.35353,2.465 60.53543,-40.8864 87.88896,-38.4214 27.35352,2.465 29.79831,35.9564 57.15183,38.4214 27.35348,2.465 60.53538,-40.8864 87.88898,-38.4214 27.3535,2.465 42.0211,10.01755 57.1518,38.4214 15.1307,28.40385 0,124.2292 0,124.2292 l -1160.326298,0 c 0,0 -20.087476,-93.52474 0,-124.2292 z"
       id="path7464"
       inkscape:connector-curvature="0"
       sodipodi:nodetypes="zzzzzzzzzzzzzzzzzccz" />
    <path
       sodipodi:nodetypes="zzzzzzzzzzzzzzzzzccz"
       inkscape:connector-curvature="0"
       id="path7466"
       d="m -35.988693,771.15137 c 20.087476,-30.70446 60.535431,-40.8864 87.888955,-38.4214 27.353525,2.465 29.798309,35.9564 57.151828,38.4214 27.35352,2.465 60.53543,-40.8864 87.88895,-38.4214 27.35353,2.465 29.79831,35.9564 57.15184,38.4214 27.35352,2.465 60.53543,-40.8864 87.88895,-38.4214 27.35353,2.465 29.79831,35.9564 57.15184,38.4214 27.35352,2.465 60.53543,-40.8864 87.88895,-38.4214 27.35353,2.465 29.79831,35.9564 57.15183,38.4214 27.35353,2.465 60.53544,-40.8864 87.88896,-38.4214 27.35352,2.465 29.79831,35.9564 57.15183,38.4214 27.35353,2.465 60.53543,-40.8864 87.88896,-38.4214 27.35352,2.465 29.79831,35.9564 57.15183,38.4214 27.35353,2.465 60.53543,-40.8864 87.88896,-38.4214 27.35352,2.465 29.79831,35.9564 57.15183,38.4214 27.35348,2.465 60.53538,-40.8864 87.88898,-38.4214 27.3535,2.465 42.0211,10.01755 57.1518,38.4214 15.1307,28.40385 0,124.2292 0,124.2292 l -1160.326293,0 c 0,0 -20.087476,-93.52474 0,-124.2292 z"
       style="opacity:1;fill:#f2f2f2;fill-opacity:1;fill-rule:nonzero;stroke:none;stroke-width:0.1;stroke-linecap:round;stroke-linejoin:round;stroke-miterlimit:4;stroke-dasharray:0.1, 0.1;stroke-dashoffset:0;stroke-opacity:1" />
    <path
       style="opacity:1;fill:#008080;fill-opacity:1;fill-rule:nonzero;stroke:none;stroke-width:0.1;stroke-linecap:round;stroke-linejoin:round;stroke-miterlimit:4;stroke-dasharray:0.1, 0.1;stroke-dashoffset:0;stroke-opacity:1"
       d="m -35.988693,785.64099 c 20.087476,-30.70446 60.535431,-40.8864 87.888955,-38.4214 27.353525,2.465 29.798309,35.9564 57.151828,38.4214 27.35352,2.465 60.53543,-40.8864 87.88895,-38.4214 27.35353,2.465 29.79831,35.9564 57.15184,38.4214 27.35352,2.465 60.53543,-40.8864 87.88895,-38.4214 27.35353,2.465 29.79831,35.9564 57.15184,38.4214 27.35352,2.465 60.53543,-40.8864 87.88895,-38.4214 27.35353,2.465 29.79831,35.9564 57.15183,38.4214 27.35353,2.465 60.53544,-40.8864 87.88896,-38.4214 27.35352,2.465 29.79831,35.9564 57.15183,38.4214 27.35353,2.465 60.53543,-40.8864 87.88896,-38.4214 27.35352,2.465 29.79831,35.9564 57.15183,38.4214 27.35353,2.465 60.53543,-40.8864 87.88896,-38.4214 27.35352,2.465 29.79831,35.9564 57.15183,38.4214 27.35348,2.465 60.53538,-40.8864 87.88898,-38.4214 27.3535,2.465 42.0211,10.01755 57.1518,38.4214 15.1307,28.40385 0,124.2292 0,124.2292 l -1160.326293,0 c 0,0 -20.087476,-93.52474 0,-124.2292 z"
       id="path7468"
       inkscape:connector-curvature="0"
       sodipodi:nodetypes="zzzzzzzzzzzzzzzzzccz" />
    <path
       sodipodi:nodetypes="ccccc"
       inkscape:connector-curvature="0"
       id="path7475"
       d="m 611.99721,384.89687 79.27753,27.89124 -7.12743,20.09179 -77.10129,-24.63115 z"
       style="opacity:1;fill:#502d16;fill-opacity:1;fill-rule:nonzero;stroke:none;stroke-width:0.1;stroke-linecap:round;stroke-linejoin:round;stroke-miterlimit:4;stroke-dasharray:0.1, 0.1;stroke-dashoffset:0;stroke-opacity:1" />
    <path
       style="opacity:1;fill:#cccccc;fill-opacity:1;fill-rule:nonzero;stroke:none;stroke-width:0.1;stroke-linecap:round;stroke-linejoin:round;stroke-miterlimit:4;stroke-dasharray:0.1, 0.1;stroke-dashoffset:0;stroke-opacity:1"
       d="m 814.04426,228.65721 c 10.51853,-5.95438 24.42574,-5.76034 36.15061,-2.82445 8.94567,2.23997 14.35408,12.70501 23.31127,14.89829 15.44618,3.7822 32.5324,-9.52452 47.5213,-4.21194 12.66779,4.4899 17.066,21.79193 28.95598,28.05752 13.88693,7.31791 41.22242,-5.53303 46.1494,9.37073 7.86768,23.79852 -8.43699,36.37784 -17.34455,39.90998 -12.972,5.14382 -27.24895,-1.62268 -40.14431,2.01353 -7.21677,2.03498 -12.24863,10.63805 -19.7456,10.77592 -10.46939,0.19253 -17.73864,-12.57548 -28.10913,-14.02434 -11.13105,-1.55511 -22.57404,10.03561 -33.14126,6.20775 -8.57708,-3.10695 -8.81499,-18.10336 -17.43218,-21.09718 -13.53552,-4.70259 -27.88869,11.33797 -42.0297,9.02334 -13.56683,-2.22066 -31.51508,-7.89172 -35.45904,-21.06124 -2.77254,-9.25821 5.60019,-19.49883 12.68642,-26.07053 6.07764,-5.63641 16.59211,-4.05341 23.11535,-9.16761 7.01912,-5.503 7.75369,-17.40594 15.51544,-21.79977 z"
       id="rect7477"
       inkscape:connector-curvature="0"
       sodipodi:nodetypes="aaaaassaaaaaaaaaa" />
    <path
       sodipodi:nodetypes="aaaaassaaaaaaaaaa"
       inkscape:connector-curvature="0"
       id="path7480"
       d="m 673.74711,339.47368 c 4.94504,-6.26853 12.98442,-8.90749 20.27824,-9.19094 5.56486,-0.21625 10.62489,6.03322 16.18773,5.78196 9.59283,-0.43326 16.94913,-13.16102 26.56361,-12.43135 8.12556,0.6167 13.87664,11.85563 21.88513,13.87103 9.35352,2.35387 22.69286,-12.0997 28.30194,-2.64577 8.95666,15.09612 1.91479,27.15855 -2.55398,31.40937 -6.50778,6.19044 -15.98313,4.30053 -22.72744,9.41992 -3.77439,2.86501 -5.06903,9.89368 -9.35771,11.48607 -5.98904,2.22374 -12.54855,-5.26719 -18.78613,-4.21265 -6.69512,1.13191 -11.12316,11.53199 -17.91678,10.95981 -5.51412,-0.46443 -8.44192,-10.91884 -13.95807,-11.29604 -8.66457,-0.5925 -13.93932,13.50444 -22.5079,14.70502 -8.2207,1.15182 -19.6049,0.76157 -24.32545,-7.67403 -3.31856,-5.93027 -0.40609,-14.77229 2.44883,-20.78829 2.44861,-5.15978 8.79406,-6.14915 11.59624,-11.03214 3.0152,-5.2542 1.22273,-13.73631 4.87174,-18.36197 z"
       style="opacity:1;fill:#808080;fill-opacity:1;fill-rule:nonzero;stroke:none;stroke-width:0.1;stroke-linecap:round;stroke-linejoin:round;stroke-miterlimit:4;stroke-dasharray:0.1, 0.1;stroke-dashoffset:0;stroke-opacity:1" />
  </g>
  <g
     inkscape:groupmode="layer"
     id="layer4"
     inkscape:label="Fish">
    <path
       inkscape:connector-curvature="0"
       id="path7557"
       style="opacity:1;fill:#ffff00;fill-opacity:1;fill-rule:nonzero;stroke:none;stroke-width:0.1;stroke-linecap:round;stroke-linejoin:round;stroke-miterlimit:4;stroke-dasharray:0.1, 0.1;stroke-dashoffset:0;stroke-opacity:1"
       d="m 2498.0489,141.72862 -99.2685,93.33784 -44.8928,-103.96836 c 0,0 -2.7206,-38.377668 144.1613,10.63052 z m -102.1197,96.77771 -99.2685,93.33785 -44.8929,-103.96837 c 0,0 -2.7205,-38.37751 144.1614,10.63052 z m -93.4251,86.67354 -99.2686,93.33785 -44.8928,-103.96837 c 0,0 -2.7206,-38.37751 144.1614,10.63052 z M 1879.5245,41.177366 2079.1273,-79.754538 2117.2276,110.4331 c 0,0 -9.1377,65.26011 -237.7031,-69.255734 z m -170.1602,136.265874 181.5093,-146.6977 63.3525,183.32862 c 0,0 -0.2707,65.89628 -244.8618,-36.63092 z m -165.5926,134.63256 181.5093,-146.69771 63.3525,183.32862 c 0,0 -0.2706,65.89628 -244.8618,-36.63091 z" />
    <path
       style="opacity:1;fill:#0088aa;fill-opacity:1;fill-rule:nonzero;stroke:none;stroke-width:0.1;stroke-linecap:round;stroke-linejoin:round;stroke-miterlimit:4;stroke-dasharray:0.1, 0.10000000000000001;stroke-dashoffset:0;stroke-opacity:1"
       d="M 8256.8453,-1995.5733 7433.4279,-956.10834 C 6001.0507,-495.00896 5141.3735,-555.101 4503.3215,-507.26195 l -76.71,-819.21095 -931.6353,818.43909 L 2015.8738,-572.83282 926.79597,81.713461 C 1139.1704,176.32609 1351.717,247.37356 1555.3254,300.6302 l 570.0209,-387.636853 398.3253,197.906823 -325.7879,310.11711 c 464.7835,54.68799 788.1446,25.73309 788.1446,25.73309 L 8043.749,-558.82742 Z"
       id="rect7534"
       inkscape:connector-curvature="0"
       sodipodi:nodetypes="cccccccccccccc" />
    <ellipse
       ry="40.204803"
       rx="110.14708"
       cy="145.95094"
       cx="2296.9709"
       id="ellipse7562"
       style="opacity:1;fill:#000000;fill-opacity:1;fill-rule:nonzero;stroke:none;stroke-width:0.1;stroke-linecap:round;stroke-linejoin:round;stroke-miterlimit:4;stroke-dasharray:0.1, 0.1;stroke-dashoffset:0;stroke-opacity:1"
       transform="matrix(0.97150723,-0.2370099,0.2370099,0.97150723,0,0)" />
    <ellipse
       style="opacity:1;fill:#ffffff;fill-opacity:1;fill-rule:nonzero;stroke:none;stroke-width:0.1;stroke-linecap:round;stroke-linejoin:round;stroke-miterlimit:4;stroke-dasharray:0.1, 0.1;stroke-dashoffset:0;stroke-opacity:1"
       id="path7560"
       cx="2296.9709"
       cy="145.95094"
       rx="100.13371"
       ry="36.549816"
       transform="matrix(0.97150723,-0.2370099,0.2370099,0.97150723,0,0)" />
    <path
       inkscape:connector-curvature="0"
       style="opacity:1;fill:#0000ff;fill-opacity:1;fill-rule:nonzero;stroke:none;stroke-width:0.1;stroke-linecap:round;stroke-linejoin:round;stroke-miterlimit:4;stroke-dasharray:0.1, 0.1;stroke-dashoffset:0;stroke-opacity:1"
       d="m 2298.2214,-442.58782 a 28.516551,31.276215 85.712166 0 0 -29.0592,30.77797 28.516551,31.276215 85.712166 0 0 33.3238,26.1007 28.516551,31.276215 85.712166 0 0 29.0593,-30.77798 28.516551,31.276215 85.712166 0 0 -33.3239,-26.10069 z m 7.6605,6.59183 a 13.282191,14.567564 85.712166 0 1 15.507,12.1485 13.282191,14.567564 85.712166 0 1 -13.5209,14.34145 13.282191,14.567564 85.712166 0 1 -15.5246,-12.16366 13.282191,14.567564 85.712166 0 1 13.5385,-14.32629 z"
       id="path7564" />
  </g>
  <g
     inkscape:groupmode="layer"
     id="layer2"
     inkscape:label="Base"
     sodipodi:insensitive="true"
     style="display:none">
    <rect
       style="opacity:1;fill:#800000;fill-opacity:1;fill-rule:nonzero;stroke:none;stroke-width:0.1;stroke-linecap:round;stroke-linejoin:round;stroke-miterlimit:4;stroke-dasharray:0.1, 0.1;stroke-dashoffset:0;stroke-opacity:1"
       id="rect7511"
       width="977.18433"
       height="627.54956"
       x="-32.017834"
       y="-94.772797" />
  </g>
  <g
     inkscape:groupmode="layer"
     id="layer3"
     inkscape:label="Shapes"
     style="display:none">
    <path
       style="opacity:1;fill:#0000ff;fill-opacity:1;fill-rule:nonzero;stroke:none;stroke-width:0.1;stroke-linecap:round;stroke-linejoin:round;stroke-miterlimit:4;stroke-dasharray:0.1, 0.1;stroke-dashoffset:0;stroke-opacity:1"
       d="m 244.61626,189.54433 10e-6,-90.929412 0,0 88.36888,0"
       id="path7531"
       inkscape:connector-curvature="0" />
    <path
       style="opacity:1;fill:#0000ff;fill-opacity:1;fill-rule:nonzero;stroke:none;stroke-width:0.1;stroke-linecap:round;stroke-linejoin:round;stroke-miterlimit:4;stroke-dasharray:0.1, 0.1;stroke-dashoffset:0;stroke-opacity:1"
       d="m 350.91514,117.82562 52.5096,0 0,140.87848 -140.87848,0 -1e-5,-49.94907"
       id="rect7518"
       inkscape:connector-curvature="0" />
  </g>
</svg>
